<svg xmlns="http://www.w3.org/2000/svg" viewBox="0 0 180 42" width="180" height="42" role="img" aria-label="Live Portfolio">
  <rect width="180" height="42" rx="8" fill="#0F172A" stroke="#334155" stroke-width="1.2" />
  <rect width="180" height="42" rx="8" fill="#0284C7" fill-opacity="0.08" />
  <g transform="translate(14, 12)" fill="#38BDF8" stroke="none">
    <svg width="18" height="18" viewBox="0 0 24 24" fill="#38BDF8">
      <path d="M12 2a10 10 0 100 20 10 10 0 000-20zm0 18a8 8 0 110-16 8 8 0 010 16z M2 12h20 M12 2a15.3 15.3 0 014 10 15.3 15.3 0 01-4 10 15.3 15.3 0 01-4-10 15.3 15.3 0 014-10z" />
    </svg>
  </g>
  <text x="44" y="26" font-family="system-ui, -apple-system, 'Segoe UI', Roboto, Helvetica, Arial, sans-serif" font-size="13" font-weight="600" fill="#F1F5F9">Live Portfolio</text>
</svg>